<svg id="visual" viewBox="0 0 900 600" width="900" height="600" xmlns="http://www.w3.org/2000/svg" xmlns:xlink="http://www.w3.org/1999/xlink" version="1.1"><path d="M0 229L21.5 223C43 217 86 205 128.8 204.2C171.7 203.3 214.3 213.7 257.2 245.5C300 277.3 343 330.7 385.8 316.8C428.7 303 471.3 222 514.2 203C557 184 600 227 642.8 235.8C685.7 244.7 728.3 219.3 771.2 202.8C814 186.3 857 178.7 878.5 174.8L900 171L900 0L878.5 0C857 0 814 0 771.2 0C728.3 0 685.7 0 642.8 0C600 0 557 0 514.2 0C471.3 0 428.7 0 385.8 0C343 0 300 0 257.2 0C214.3 0 171.7 0 128.8 0C86 0 43 0 21.5 0L0 0Z" fill="#e59ef4" stroke-linecap="round" stroke-linejoin="miter"></path></svg>