<svg id="visual" viewBox="0 0 900 600" width="900" height="600" xmlns="http://www.w3.org/2000/svg" xmlns:xlink="http://www.w3.org/1999/xlink" version="1.1"><path d="M0 154L25 155.7C50 157.3 100 160.7 150 192.8C200 225 250 286 300 291.5C350 297 400 247 450 214.5C500 182 550 167 600 192.2C650 217.3 700 282.7 750 282.5C800 282.3 850 216.7 875 183.8L900 151L900 0L875 0C850 0 800 0 750 0C700 0 650 0 600 0C550 0 500 0 450 0C400 0 350 0 300 0C250 0 200 0 150 0C100 0 50 0 25 0L0 0Z" fill="#ffe4c4" stroke-linecap="round" stroke-linejoin="miter"></path></svg>
