<svg id="visual" viewBox="0 0 900 600" width="900" height="600" xmlns="http://www.w3.org/2000/svg" xmlns:xlink="http://www.w3.org/1999/xlink" version="1.1"><path d="M0 221L21.5 234.7C43 248.3 86 275.7 128.8 268C171.7 260.3 214.3 217.7 257.2 203.8C300 190 343 205 385.8 222.2C428.7 239.3 471.3 258.7 514.2 259C557 259.3 600 240.7 642.8 240.3C685.7 240 728.3 258 771.2 258C814 258 857 240 878.5 231L900 222L900 0L878.5 0C857 0 814 0 771.2 0C728.3 0 685.7 0 642.8 0C600 0 557 0 514.2 0C471.3 0 428.7 0 385.8 0C343 0 300 0 257.2 0C214.3 0 171.7 0 128.8 0C86 0 43 0 21.5 0L0 0Z" fill="#FF6973" stroke-linecap="round" stroke-linejoin="miter"></path></svg>